<svg width="480" height="240" viewBox="0 0 480 240" xmlns="http://www.w3.org/2000/svg">
  <rect width="100%" height="100%" fill="#1b1f24" />
  <g stroke="#e6e6e6" fill="none" stroke-width="2" stroke-linecap="round" stroke-linejoin="round">
    <g transform="translate(63.2 33.2) scale(1.4)">
      <circle cx="12" cy="12" r="4"></circle>
      <path d="M12 2v2M12 20v2M4.93 4.93l1.41 1.41M17.66 17.66l1.41 1.41M2 12h2M20 12h2M6.34 17.66l-1.41 1.41M19.07 4.93l-1.41 1.41"></path>
    </g>
    <g transform="translate(223.2 33.2) scale(1.4)">
      <path d="M18 10h-1.26A8 8 0 1 0 9 20h9a5 5 0 0 0 0-10z"></path>
    </g>
    <g transform="translate(383.2 33.2) scale(1.4)">
      <path d="M20 16.58A5 5 0 0 0 18 7h-1.26A8 8 0 1 0 4 15.25"></path>
      <line x1="16" y1="13" x2="16" y2="21"></line>
      <line x1="8" y1="13" x2="8" y2="21"></line>
      <line x1="12" y1="15" x2="12" y2="23"></line>
    </g>
    <g transform="translate(63.2 153.2) scale(1.4)">
      <polygon points="13 2 3 14 12 14 11 22 21 10 12 10 13 2"></polygon>
    </g>
    <g transform="translate(223.2 153.2) scale(1.4)">
      <path d="M12 2v2M12 20v2M4.93 4.93l1.41 1.41M17.66 17.66l1.41 1.41M2 12h2M20 12h2M6.34 17.66l-1.41 1.41M19.07 4.93l-1.41 1.41"></path>
      <circle cx="12" cy="12" r="2"></circle>
    </g>
    <g transform="translate(383.2 153.2) scale(1.4)">
      <path d="M5 12h14M12 5h7M12 19h7"></path>
    </g>
  </g>
  <g fill="#c8ccd0" font-size="12" text-anchor="middle" font-family="Segoe UI, Arial, sans-serif">
    <text x="80" y="100">Clear</text>
    <text x="240" y="100">Clouds</text>
    <text x="400" y="100">Rain</text>
    <text x="80" y="220">Thunderstorm</text>
    <text x="240" y="220">Snow</text>
    <text x="400" y="220">Mist</text>
  </g>
</svg>
